<svg xmlns="http://www.w3.org/2000/svg" version="1.1" xmlns:xlink="http://www.w3.org/1999/xlink" width="512" height="512" x="0" y="0" viewBox="0 0 24 24" style="enable-background:new 0 0 512 512" xml:space="preserve" class=""><g transform="matrix(1.0799999999999996,0,0,1.0799999999999996,-0.9599999999999973,-0.9599999999999973)"><g fill="#f44336"><path d="M17 7.5H7A1.502 1.502 0 0 0 5.5 9v.5h13V9A1.502 1.502 0 0 0 17 7.5z" fill="#f44336" opacity="1" data-original="#f44336" class=""></path><path d="M12 1a11 11 0 1 0 11 11A11 11 0 0 0 12 1zm6.354 15.646a.5.5 0 1 1-.707.707L16.5 16.207l-1.147 1.147a.5.5 0 0 1-.706-.707l1.146-1.147-1.147-1.147a.5.5 0 0 1 .707-.706l1.147 1.146 1.147-1.147a.5.5 0 0 1 .707.707L17.207 15.5zM19.5 12a.5.5 0 0 1-1 0v-1.5h-13V15A1.502 1.502 0 0 0 7 16.5h5a.5.5 0 0 1 0 1H7A2.503 2.503 0 0 1 4.5 15V9A2.503 2.503 0 0 1 7 6.5h10A2.503 2.503 0 0 1 19.5 9z" fill="#f44336" opacity="1" data-original="#f44336" class=""></path></g></g></svg>
